<?xml version="1.0" encoding="utf-8"?>
<!-- Generator: Adobe Illustrator 24.2.1, SVG Export Plug-In . SVG Version: 6.00 Build 0)  -->
<svg version="1.1" id="Layer_2" xmlns="http://www.w3.org/2000/svg" xmlns:xlink="http://www.w3.org/1999/xlink" x="0px" y="0px"
	 viewBox="0 0 500 500" enable-background="new 0 0 500 500" xml:space="preserve">
<g>
	<g>
		<path fill="#FFFFFF" d="M114.92,224.841c-1.649-4.662-5.878-7.608-10.271-9.447c-2.346-0.982-4.798-1.704-7.274-2.273
			c-2.729-0.626-5.551-1.048-8.356-0.869c-2.765,0.177-5.462,1.007-7.696,2.678c-1.955,1.463-3.456,3.442-4.609,5.578
			c-2.718,5.035-3.767,11.011-4.25,16.651c-1.114,13.015,1.47,26.194,4.773,38.729c1.664,6.314,3.757,12.48,5.778,18.685
			c1.013,3.109,1.978,6.237,2.758,9.414c0.781,3.182,1.25,6.385,1.709,9.624c0.4,2.826,1.017,5.651,2.632,8.055
			c1.371,2.041,3.284,3.715,5.481,4.817c4.677,2.345,10.348,1.689,14.523-1.409c0.971-0.721,1.839-1.562,2.599-2.502
			c0.102-0.126,0.332-0.468,0.25-0.64c-0.082-0.173-0.2-0.098-0.313,0.042c-3.271,4.045-8.914,5.947-13.958,4.62
			c-5.092-1.34-8.865-5.454-10.082-10.521c-0.7-2.912-0.871-5.93-1.427-8.871c-0.572-3.023-1.354-6.002-2.234-8.948
			c-1.787-5.986-3.945-11.852-5.705-17.847c-1.81-6.166-3.329-12.425-4.507-18.744c-1.159-6.218-1.947-12.528-1.965-18.86
			c-0.017-6.048,0.61-12.3,2.544-18.059c1.659-4.943,4.689-9.518,9.949-11.019c5.151-1.47,10.886-0.161,15.854,1.433
			c4.407,1.414,9.031,3.596,11.746,7.51c0.642,0.924,1.147,1.927,1.522,2.987C114.461,225.85,115.02,225.125,114.92,224.841
			L114.92,224.841z"/>
	</g>
</g>
<g>
	<path fill="#FFFFFA" d="M243.888,239.899c0.143,1.948-0.108,3.954-0.952,5.715s-2.318,3.259-4.156,3.919
		c-1.234,0.443-2.574,0.499-3.883,0.421c-3.096-0.185-6.247-1.168-8.496-3.305c-2.249-2.136-3.408-5.558-2.344-8.472l-17.275,1.005
		c6.659-2.125,13.774-2.253,20.762-2.138c6.191,0.101,12.43,0.385,18.442,1.868c2.938,0.725,5.798,1.731,8.653,2.735
		c3.716,1.307,7.532,2.671,10.49,5.273"/>
	<g>
		<path fill="#FFFFFF" d="M243.607,240.24c0.152,2.296-0.203,4.738-1.648,6.603c-1.409,1.818-3.464,2.645-5.728,2.686
			c-4.052,0.073-8.645-1.379-10.93-4.943c-1.204-1.878-1.771-4.289-1.02-6.444c0.03-0.085,0.145-0.429-0.05-0.417
			c-5.038,0.293-10.076,0.586-15.114,0.88c-0.72,0.042-1.441,0.084-2.161,0.126c-0.116,0.302-0.232,0.603-0.348,0.905
			c7.58-2.392,15.676-2.304,23.539-2.077c4.12,0.119,8.249,0.382,12.312,1.104c3.985,0.708,7.806,1.973,11.615,3.312
			c3.812,1.34,7.729,2.703,10.828,5.392c0.161,0.14,0.69-0.686,0.454-0.891c-2.735-2.373-6.122-3.72-9.493-4.921
			c-3.786-1.348-7.587-2.701-11.531-3.512c-3.957-0.813-7.995-1.162-12.026-1.327c-4.053-0.166-8.127-0.238-12.181-0.07
			c-4.455,0.184-8.906,0.739-13.169,2.085c-0.212,0.067-0.661,0.923-0.348,0.905c5.038-0.293,10.076-0.586,15.114-0.88
			c0.72-0.042,1.441-0.084,2.161-0.126c-0.017-0.139-0.033-0.278-0.05-0.417c-1.554,4.46,1.189,8.937,5.247,10.839
			c2.218,1.04,4.822,1.508,7.266,1.365c2.394-0.14,4.429-1.278,5.847-3.202c1.622-2.203,2.154-4.968,1.976-7.657
			c-0.015-0.228-0.244-0.033-0.313,0.042C243.713,239.755,243.593,240.024,243.607,240.24L243.607,240.24z"/>
	</g>
</g>
<g>
	<path fill="#FFFFFA" d="M357.173,250.5c0.221,2.381,0.37,5.022-1.105,6.904c-0.899,1.147-2.296,1.825-3.724,2.115
		c-1.429,0.29-2.904,0.228-4.358,0.127c-1.681-0.116-3.382-0.289-4.956-0.89c-1.574-0.602-3.027-1.686-3.741-3.212
		c-0.724-1.55-0.615-3.343-0.491-5.048l-9.116,3.115c2.519-2.483,6.089-3.558,9.562-4.232c8.718-1.692,17.817-1.386,26.401,0.887
		c5.989,1.586,11.685,4.1,17.352,6.603"/>
	<g>
		<path fill="#FFFFFF" d="M356.891,250.841c0.164,1.787,0.381,3.824-0.397,5.506c-0.858,1.855-2.979,2.653-4.885,2.86
			c-2.035,0.221-4.247,0.039-6.255-0.326c-1.8-0.327-3.614-1.014-4.881-2.386c-1.601-1.733-1.555-4.042-1.395-6.252
			c0.004-0.052,0.004-0.236-0.106-0.198c-3.039,1.038-6.077,2.077-9.116,3.115c-0.072,0.276-0.143,0.552-0.215,0.829
			c2.348-2.272,5.508-3.329,8.641-3.996c3.564-0.759,7.214-1.153,10.856-1.225c7.511-0.149,14.895,1.2,21.957,3.725
			c3.967,1.419,7.823,3.122,11.675,4.823c0.256,0.113,0.693-0.785,0.454-0.891c-7.03-3.106-14.121-6.183-21.721-7.583
			c-7.345-1.353-14.953-1.331-22.281,0.124c-3.436,0.682-6.925,1.78-9.498,4.27c-0.073,0.07-0.49,0.923-0.215,0.829
			c3.039-1.038,6.077-2.077,9.116-3.115c-0.035-0.066-0.071-0.132-0.106-0.198c-0.151,2.099-0.263,4.386,1.086,6.153
			c1.3,1.703,3.357,2.529,5.41,2.888c1.151,0.201,2.323,0.287,3.488,0.352c1.223,0.067,2.462,0.074,3.668-0.171
			c1.941-0.395,3.662-1.496,4.58-3.284c1.035-2.014,0.904-4.343,0.704-6.53C357.423,249.823,356.867,250.581,356.891,250.841
			L356.891,250.841z"/>
	</g>
</g>
<g>
	<path fill="#FFE9E9" d="M406.438,166.288c1.779,25.196-1.94,50.767-10.822,74.413c0.61-4.818,0.243-9.758-1.073-14.433
		c-1.036,4.269-2.729,8.377-5.002,12.136c-1.996-7.514-3.992-15.028-5.988-22.542c-3.572,7-7.144,14.001-10.716,21.001
		c-1.525-5.583-3.05-11.166-4.576-16.748c-3.741,3.254-6.31,7.829-7.141,12.718c-1.095-3.249-2.191-6.499-3.286-9.748
		c-2.134,6.194-4.267,12.388-6.401,18.582c-5.733-26.209-11.466-52.417-17.199-78.626c-5.978,18.487-8.464,37.892-10.921,57.166
		c1.488-28.183-0.9-56.567-7.075-84.106c-2.417,2.366-3.251,5.867-3.978,9.171c-3.99,18.116-7.979,36.232-11.969,54.347
		c3.544-25.511,2.811-51.61-2.159-76.882c-6.401,14.598-12.803,29.196-19.204,43.794c0.251-22.818,0.089-45.641-0.486-68.454
		l-1.72-0.231c-19.071,35.178-43.05,67.691-71.023,96.303c-3.467,3.546-7.244,7.177-12.058,8.366
		c0.221-6.352,0.868-12.69,1.934-18.956c-5.72,7.499-11.44,14.998-17.16,22.497c-3.222-4.365-3.816-10.051-4.936-15.36
		s-3.3-11.009-8.153-13.435c-7.263,11.42-13.381,23.569-18.231,36.205c-1.64-6.004-3.28-12.009-4.921-18.013
		c-10.63,13.353-18.911,28.57-24.351,44.746c-2.959-8.257-6.069-16.767-12.075-23.16s-15.74-10.145-23.771-6.617l-0.871,3.727
		c-1.587-1.699-0.027-4.349,0.427-6.629c0.454-2.28-3.051-4.897-3.629-2.645c0.531-7.86,0.301-15.772-0.686-23.588
		c-2.348,3.409-3.273,7.767-2.511,11.836c2.156-33.88,4.694-69.096,21.475-98.608c13.522-23.781,36.038-42.301,61.98-50.983
		c6.791-2.273,13.782-3.89,20.762-5.489c27.861-6.382,56.174-12.57,84.726-11.246c47.365,2.197,91.094,24.711,133.01,46.875
		c-8.85-3.626-17.701-7.252-26.551-10.879l5.977,2.099c22.246,22.587,31.037,54.887,37.564,85.91
		c2.803,13.324,5.359,26.901,4.288,40.475c-0.972,12.322-4.898,24.193-8.794,35.923c-3.281-4.962-5.526-10.605-6.549-16.465"/>
</g>
<g>
	<g>
		<path fill="#FFFFFF" d="M264.114,248.47c1.395,2.776-3.663,3.108-5.225,3.278c-2.535,0.275-5.086,0.413-7.636,0.415
			c-5.166,0.004-10.321-0.559-15.368-1.662c-0.303-0.066-0.663,0.845-0.454,0.891c4.496,0.983,9.08,1.543,13.681,1.655
			c2.311,0.056,4.624,0,6.929-0.168c1.153-0.084,2.303-0.196,3.45-0.336c1.015-0.124,2.063-0.228,3.016-0.621
			c1.536-0.633,2.981-2.581,2.135-4.265C264.534,247.442,263.982,248.208,264.114,248.47L264.114,248.47z"/>
	</g>
</g>
<g>
	<g>
		<path fill="#FFFFFF" d="M218.72,245.221c-2.437-1.615-5.15-2.767-8.005-3.398c-0.303-0.067-0.663,0.845-0.454,0.891
			c2.855,0.631,5.568,1.783,8.005,3.398C218.47,246.247,218.965,245.383,218.72,245.221L218.72,245.221z"/>
	</g>
</g>
<g>
	<g>
		<path fill="#FFFFFF" d="M328.726,254.112c3.029,3.109,7.131,5.001,11.457,5.318c0.263,0.019,0.644-0.883,0.348-0.905
			c-4.284-0.314-8.356-2.229-11.351-5.304C329.047,253.085,328.502,253.882,328.726,254.112L328.726,254.112z"/>
	</g>
</g>
<g>
	<g>
		<path fill="#FFFFFF" d="M355.739,260.836c5.034,0.047,10.068,0.1,15.102,0.14c3.718,0.03,7.897-0.095,10.735-2.844
			c0.141-0.136,0.347-0.421,0.321-0.63c-0.02-0.158-0.072-0.285-0.239-0.122c-2.861,2.772-7.212,2.722-10.932,2.687
			c-4.879-0.045-9.759-0.091-14.638-0.136C355.815,259.928,355.455,260.833,355.739,260.836L355.739,260.836z"/>
	</g>
</g>
<g>
	<g>
		<path fill="#FFFFFF" d="M103.841,234.823c-1.013-4.538-2.122-9.395-5.572-12.76c-1.521-1.483-3.436-2.61-5.56-2.917
			c-2.346-0.339-4.697,0.391-6.708,1.575c-4.184,2.463-6.709,6.566-8.193,11.085c-1.632,4.969-2.642,10.186-3.209,15.379
			c-0.657,6.012-0.642,12.09,0.032,18.1c0.038,0.339,0.592-0.422,0.563-0.682c-1.131-10.093-0.375-20.372,2.272-30.179
			c0.626-2.319,1.343-4.636,2.482-6.761c1.112-2.076,2.683-3.893,4.593-5.275c1.912-1.383,4.186-2.41,6.581-2.425
			c2.052-0.012,4.01,0.813,5.617,2.054c4.18,3.228,5.447,8.595,6.54,13.488C103.357,235.859,103.898,235.078,103.841,234.823
			L103.841,234.823z"/>
	</g>
</g>
<g>
	<g>
		<path fill="#FFFFFF" d="M112.368,298.077c-1.316-2.461-3.159-4.621-5.384-6.307c-2.319-1.757-4.925-2.766-7.695-3.569
			c-2.68-0.776-5.548-1.539-7.593-3.56c-2.066-2.042-2.897-5.053-2.858-7.894c0.053-3.832,1.663-7.432,3.175-10.879
			c0.05-0.114,0.133-0.392-0.05-0.417c-0.174-0.024-0.351,0.382-0.397,0.488c-2.399,5.466-5.144,12.28-1.652,17.928
			c1.545,2.498,4.137,3.758,6.849,4.612c2.87,0.904,5.752,1.583,8.335,3.196c2.836,1.771,5.165,4.267,6.741,7.215
			C111.957,299.109,112.506,298.335,112.368,298.077L112.368,298.077z"/>
	</g>
</g>
<g>
	<g>
		<path fill="#FFFFFF" d="M110.127,254.766c-1.098-1.66-3.369-1.689-4.991-0.829c-2.053,1.089-2.899,3.551-2.618,5.765
			c0.184,1.445,0.781,2.818,1.611,4.007c0.157,0.225,0.688-0.584,0.528-0.813c-1.215-1.74-2.114-4.154-1.381-6.262
			c0.561-1.613,2.372-2.469,4.01-2.348c0.93,0.068,1.794,0.508,2.313,1.294C109.748,255.804,110.283,255.002,110.127,254.766
			L110.127,254.766z"/>
	</g>
</g>
<g>
	<g>
		<path fill="#FFFFFF" d="M293.28,238.089c7.66-3.345,16.537-3.75,24.458-1.061c2.3,0.781,4.504,1.814,6.57,3.09
			c0.214,0.132,0.699-0.74,0.454-0.891c-7.271-4.49-16.233-5.886-24.572-4.14c-2.298,0.481-4.537,1.206-6.689,2.146
			C293.267,237.335,292.945,238.235,293.28,238.089L293.28,238.089z"/>
	</g>
</g>
<g>
	<g>
		<path fill="#FFFFFF" d="M191.416,231.755c-5.556-1.277-11.147-2.4-16.767-3.362c-1.256-0.215-2.523-0.481-3.793-0.604
			c-1.02-0.099-2.076,0.04-2.764,0.868c-0.464,0.558-0.82,1.404-0.632,2.135c0.277,1.075,1.534,1.012,2.415,0.995
			c2.864-0.055,5.727-0.11,8.591-0.165c1.453-0.028,2.905-0.056,4.358-0.084c1.358-0.026,2.735-0.117,4.092-0.039
			c1.197,0.069,2.49,0.386,3.229,1.41c0.284,0.394,0.511,0.886,0.513,1.38c0.003,0.699-0.57,1.032-1.183,1.182
			c-0.985,0.241-2.034,0.026-3.002-0.193c-1.411-0.318-2.821-0.639-4.232-0.959c-3.144-0.712-6.288-1.425-9.432-2.137
			c-1.733-0.393-4.989-1.342-4.63-3.699c-0.151,0.236-0.303,0.471-0.454,0.707c7.338,0.62,13.409,6.322,20.924,5.933
			c0.248-0.013,0.559-0.653,0.438-0.859c-0.629-1.068-1.697-1.71-2.932-1.782c-0.259-0.015-0.648,0.875-0.348,0.905
			c0.846,0.084,1.692,0.169,2.538,0.253c0.095-0.294,0.19-0.587,0.284-0.881c-3.836,1.48-7.986,0.08-11.649-1.252
			c-3.933-1.43-7.881-2.812-11.865-4.095c-7.991-2.574-16.09-4.814-24.269-6.713c-4.596-1.067-9.216-2.024-13.856-2.875
			c-0.309-0.057-0.655,0.854-0.454,0.891c8.376,1.537,16.687,3.423,24.904,5.661c8.217,2.238,16.338,4.824,24.336,7.748
			c3.993,1.46,8.43,3.112,12.631,1.491c0.178-0.069,0.602-0.849,0.284-0.881c-0.846-0.084-1.692-0.169-2.538-0.253
			c-0.116,0.302-0.232,0.603-0.348,0.905c1.154,0.067,2.167,0.697,2.752,1.69c0.146-0.286,0.292-0.573,0.438-0.859
			c-7.496,0.388-13.59-5.313-20.924-5.933c-0.246-0.021-0.428,0.538-0.454,0.707c-0.29,1.909,1.475,3.03,3.041,3.607
			c1.131,0.417,2.338,0.621,3.51,0.887c1.451,0.329,2.902,0.658,4.353,0.986c2.735,0.62,5.468,1.347,8.226,1.854
			c1.768,0.325,3.811,0.119,4.375-1.904c0.241-0.862,0.003-1.77-0.554-2.459c-0.664-0.822-1.656-1.179-2.679-1.31
			c-1.349-0.172-2.742-0.057-4.097-0.031c-1.453,0.028-2.905,0.056-4.358,0.084c-2.947,0.056-5.893,0.113-8.84,0.169
			c-0.607,0.012-1.324,0.109-1.904-0.116c-0.525-0.204-0.885-0.764-0.641-1.322c0.539-1.233,2.767-0.712,3.734-0.555
			c6.431,1.047,12.827,2.305,19.177,3.765C191.264,232.715,191.627,231.804,191.416,231.755L191.416,231.755z"/>
	</g>
</g>
<g>
	<g>
		<path d="M315.813,372.66c0.273,0,0.63-0.905,0.348-0.905C315.887,371.755,315.53,372.66,315.813,372.66L315.813,372.66z"/>
	</g>
</g>
<g>
	<g>
		<path d="M438.826,371.928c0.273,0,0.63-0.905,0.348-0.905C438.901,371.023,438.544,371.928,438.826,371.928L438.826,371.928z"/>
	</g>
</g>
<g>
	<g>
		<path fill="#FFFFFF" d="M154.43,373.614c2.862,12.721,4.237,25.768,4.3,38.802c0.064,13.065-1.184,26.165-3.861,38.957
			c-1.454,6.946-3.334,13.805-5.702,20.496c-0.227,0.641,0.305,0.332,0.447-0.07c4.277-12.085,7.012-24.696,8.46-37.425
			c1.497-13.16,1.63-26.491,0.37-39.676c-0.699-7.318-1.838-14.593-3.451-21.766C154.913,372.578,154.373,373.359,154.43,373.614
			L154.43,373.614z"/>
	</g>
</g>
<g>
	<g>
		<path fill="#FFFFFF" d="M342.283,416.864c0.38,8.738,0.761,17.476,1.141,26.214c0.191,4.382,0.38,8.765,0.572,13.147
			c0.16,3.649,0.353,7.312,1.012,10.911c0.716,3.912,2.019,7.734,4.389,10.965c0.165,0.225,0.692-0.59,0.528-0.813
			c-4.347-5.927-4.979-13.512-5.314-20.617c-0.406-8.609-0.751-17.22-1.126-25.83c-0.213-4.887-0.425-9.773-0.638-14.66
			c-0.01-0.23-0.247-0.03-0.313,0.042C342.386,416.382,342.274,416.645,342.283,416.864L342.283,416.864z"/>
	</g>
</g>
<g>
	<g>
		<path d="M335.964,364.956c0.273,0,0.63-0.905,0.348-0.905C336.039,364.05,335.681,364.956,335.964,364.956L335.964,364.956z"/>
	</g>
</g>
<g>
	<g>
		<path d="M274.589,408.047c0.273,0,0.63-0.905,0.348-0.905C274.664,407.142,274.306,408.047,274.589,408.047L274.589,408.047z"/>
	</g>
</g>
<g>
	<path fill="#FFF4F4" d="M394.714,238.738c-1.787,22.71,0.16,45.534,0.126,68.316s-2.189,46.091-11.609,66.783
		c-2.763,6.069-6.119,11.839-9.132,17.785c-6.86,13.537-12.197,28.363-22.908,39.039c-10.307,10.273-24.47,15.54-35.895,24.522
		l0.232,0.044c-2.619,0.588-5.238,1.177-7.858,1.765c-5.538,1.244-11.18,2.496-16.833,2.011l14.686-8.368
		c-7.89,7.457-19.951,9.678-30.923,8.182c-10.972-1.496-21.14-6.239-30.97-11.143c-25.743-12.84-50.845-27.373-72.091-46.315
		c-21.246-18.943-38.57-42.622-46.141-69.466c-2.414-8.561-3.821-17.35-5.143-26.127c-2.079-13.804-3.962-27.816-2.185-41.659
		l0.408,20.844c7.301,4.324,16.184,4.606,24.643,4.716c50.301,0.658,102.505-1.12,147.626-23.624
		c4.853-2.42,9.901-5.389,12.172-10.357l0.778-0.764c10.122,12.11,23.764,21.172,38.771,25.755c4.346,1.327,8.793,2.285,13.25,3.154
		c12.492,2.434,25.228,4.179,37.918,3.264"/>
	<g>
		<path fill="#FFFFFF" d="M394.434,238.992c-2.609,33.711,2.896,67.667-1.975,101.257c-1.177,8.117-2.961,16.167-5.613,23.935
			c-2.654,7.773-6.386,14.99-10.236,22.221c-3.566,6.698-6.704,13.589-10.018,20.411c-3.26,6.711-6.803,13.361-11.512,19.184
			c-10.569,13.07-26.791,18.694-39.742,28.808c-0.09,0.071-0.509,0.776-0.268,0.822c0.077,0.015,0.154,0.029,0.232,0.044
			c0.134-0.299,0.267-0.599,0.401-0.898c-8.035,1.805-16.373,4.411-24.69,3.776c-0.095,0.294-0.19,0.587-0.284,0.881
			c4.895-2.789,9.791-5.578,14.686-8.368c0.05-0.268,0.101-0.536,0.151-0.804c-6.633,6.17-15.832,8.619-24.729,8.544
			c-10.079-0.085-19.782-3.522-28.85-7.661c-9.196-4.196-18.188-8.923-27.047-13.784c-8.749-4.801-17.344-9.894-25.662-15.411
			c-16.296-10.809-31.584-23.303-44.396-38.132c-11.973-13.859-21.826-29.742-27.633-47.173
			c-3.376-10.135-5.125-20.681-6.711-31.217c-1.667-11.068-3.221-22.244-2.834-33.466c0.094-2.711,0.311-5.415,0.647-8.107
			c-0.187,0.198-0.374,0.397-0.562,0.595c0.094,4.825,0.189,9.65,0.283,14.475c0.026,1.346,0.053,2.693,0.079,4.039
			c0.012,0.627-0.148,1.558,0.042,2.16c0.119,0.376-0.186,0.105,0.465,0.51c1.176,0.733,2.506,1.285,3.799,1.775
			c2.623,0.993,5.374,1.605,8.147,1.995c5.456,0.766,11.001,0.711,16.498,0.767c5.807,0.059,11.615,0.079,17.422,0.032
			c11.728-0.094,23.458-0.457,35.156-1.319c23.046-1.698,46.096-5.35,68.012-12.855c5.38-1.842,10.683-3.911,15.878-6.224
			c4.773-2.125,9.806-4.269,13.988-7.453c1.716-1.306,3.274-2.836,4.459-4.647c0.323-0.494,0.82-2.033,1.437-2.207
			c0.42-0.118-0.354-0.281,0.269,0.178c0.199,0.146,0.414,0.487,0.586,0.685c0.492,0.568,0.991,1.13,1.498,1.684
			c3.558,3.888,7.488,7.432,11.721,10.571c8.751,6.488,18.7,11.116,29.257,13.766c12.106,3.039,24.796,5.117,37.288,5.389
			c3.132,0.068,6.262-0.005,9.387-0.221c0.28-0.019,0.615-0.923,0.348-0.905c-14.086,0.974-28.227-1.153-41.974-4.093
			c-11.959-2.557-23.192-7.091-33.128-14.295c-5.459-3.958-10.409-8.578-14.747-13.739c-0.068-0.081-0.157-0.035-0.223,0.031
			c-0.838,0.823-1.182,1.568-1.816,2.58c-1.021,1.629-2.413,3.005-3.916,4.19c-3.016,2.379-6.557,4.049-10.006,5.692
			c-7.509,3.578-15.265,6.624-23.177,9.186c-15.579,5.044-31.715,8.213-47.957,10.166c-16.352,1.966-32.827,2.717-49.288,2.91
			c-8.251,0.096-16.503,0.057-24.754-0.06c-4.162-0.059-8.344-0.166-12.465-0.801c-3.929-0.606-7.486-1.809-11.042-3.552
			c-0.637-0.312-0.558-0.26-0.571-0.901c-0.012-0.62-0.024-1.24-0.036-1.86c-0.04-2.039-0.08-4.078-0.12-6.116
			c-0.075-3.834-0.15-7.669-0.225-11.503c-0.005-0.237-0.009-0.473-0.014-0.71c-0.007-0.367-0.542,0.435-0.562,0.595
			c-1.377,11.027-0.517,22.146,0.945,33.118c1.458,10.948,3.013,22.002,5.822,32.697c4.774,18.177,14.004,34.901,25.701,49.528
			c12.162,15.208,26.935,28.119,42.861,39.252c16.78,11.729,34.825,21.622,53.199,30.606c16.4,8.019,37.027,15.442,54.228,5.168
			c1.776-1.061,3.422-2.309,4.936-3.717c0.114-0.106,0.489-0.997,0.151-0.804c-4.895,2.789-9.791,5.578-14.686,8.368
			c-0.145,0.083-0.623,0.855-0.284,0.881c8.317,0.635,16.655-1.971,24.69-3.776c0.189-0.042,0.656-0.85,0.401-0.898
			c-0.077-0.015-0.154-0.029-0.232-0.044c-0.089,0.274-0.179,0.548-0.268,0.822c11.787-9.204,26.4-14.538,36.844-25.494
			c10.12-10.616,15.3-24.645,21.759-37.544c3.734-7.457,8.008-14.638,11.173-22.371c2.961-7.234,5.106-14.785,6.626-22.447
			c3.174-16.002,3.65-32.381,3.409-48.647c-0.299-20.189-1.633-40.403-0.072-60.573
			C395.034,237.976,394.453,238.744,394.434,238.992L394.434,238.992z"/>
	</g>
</g>
<g>
	<g>
		<path fill="#FFFFFF" d="M328.094,238.833c0.427-1.876,1.878-3.239,3.314-4.417c1.745-1.431,3.619-2.722,5.492-3.977
			c3.922-2.628,8.027-4.975,12.274-7.035c0.384-0.186,0.65-0.765,0.743-1.157c0.058-0.246,0.096-0.748-0.3-0.556
			c-3.626,1.759-7.148,3.725-10.541,5.899c-1.712,1.097-3.392,2.246-5.035,3.444c-1.408,1.027-2.833,2.062-4.05,3.316
			c-1.383,1.426-2.495,3.127-2.94,5.084c-0.067,0.294-0.091,0.678,0.3,0.556C327.714,239.877,328.02,239.158,328.094,238.833
			L328.094,238.833z"/>
	</g>
</g>
<g>
	<g>
		<path fill="#FFFFFF" d="M323.527,239.797c0.612,8.107,1.214,16.215,1.837,24.321c0.483,6.282,1.1,12.602,2.72,18.708
			c1.552,5.85,4.083,11.483,8.325,15.885c4.649,4.824,10.975,7.556,17.506,8.681c7.523,1.296,15.191,0.477,22.649-0.852
			c3.699-0.659,7.401-1.372,11.063-2.214c3.226-0.741,6.463-1.691,9.36-3.331c6.03-3.413,9.125-9.681,11.537-15.9
			c2.783-7.174,5.383-14.532,6.493-22.176c0.97-6.675,0.671-13.521-1.795-19.851c-2.111-5.419-5.75-10.423-10.804-13.429
			c-1.219-0.725-2.509-1.318-3.848-1.782c-0.555-0.192-1.367,1.623-0.908,1.782c5.514,1.911,9.841,6.088,12.657,11.127
			c3.038,5.436,4.291,11.622,4.071,17.818c-0.27,7.568-2.445,14.906-5.008,21.98c-2.169,5.988-4.306,12.812-9.412,16.997
			c-2.554,2.094-5.69,3.351-8.839,4.242c-3.369,0.953-6.835,1.578-10.268,2.249c-7.454,1.459-15.09,2.689-22.705,1.994
			c-6.455-0.589-12.957-2.611-18.107-6.648c-4.752-3.725-7.898-9.005-9.841-14.657c-1.992-5.796-2.823-11.932-3.386-18.011
			c-0.689-7.441-1.159-14.907-1.722-22.359c-0.15-1.98-0.299-3.96-0.449-5.939c-0.034-0.45-0.488-0.075-0.626,0.084
			C323.747,238.837,323.494,239.357,323.527,239.797L323.527,239.797z"/>
	</g>
</g>
<g>
	<g>
		<path fill="#FFFFFF" d="M291.485,239.614c1.815-9.479-3.276-18.878-10.939-24.28c-8.818-6.216-19.99-7.553-30.5-7.578
			c-6.134-0.015-12.26,0.373-18.394,0.377c-5.913,0.004-11.874-0.417-17.743,0.506c-4.764,0.749-9.508,2.484-13.204,5.656
			c-3.992,3.426-6.023,8.295-7.442,13.24c-1.633,5.689-2.862,11.505-3.759,17.353c-0.877,5.723-1.498,11.53-1.366,17.326
			c0.227,10.01,3.23,20.6,11.204,27.221c4.153,3.449,9.433,5.281,14.554,6.757c4.974,1.434,10.098,2.378,15.265,2.728
			c10.377,0.702,20.936-1.148,30-6.397c4.709-2.727,8.947-6.191,13.005-9.795c2.017-1.791,4.017-3.606,5.982-5.454
			c1.965-1.849,3.851-3.801,5.364-6.045c3.137-4.652,4.577-10.292,5.875-15.68c1.364-5.666,2.349-11.426,2.938-17.224
			c0.291-2.865,0.483-5.739,0.582-8.616c0.013-0.379-0.178-0.483-0.479-0.244c-0.321,0.255-0.628,0.845-0.642,1.26
			c-0.196,5.676-0.761,11.336-1.705,16.937c-0.922,5.473-2.114,11.004-3.908,16.263c-0.847,2.484-1.905,4.909-3.453,7.043
			c-1.541,2.124-3.464,3.94-5.386,5.71c-3.859,3.554-7.729,7.13-11.934,10.276c-4.144,3.101-8.645,5.716-13.541,7.432
			c-4.715,1.653-9.677,2.544-14.662,2.795c-5.086,0.256-10.197-0.143-15.201-1.069c-5.069-0.938-10.142-2.35-14.885-4.385
			c-4.581-1.965-8.472-4.902-11.38-8.972c-2.757-3.858-4.561-8.35-5.512-12.982c-1.135-5.529-1.146-11.217-0.684-16.821
			c0.471-5.709,1.343-11.394,2.535-16.996c0.593-2.787,1.268-5.557,2.03-8.303c0.669-2.411,1.43-4.818,2.6-7.039
			c2.245-4.258,6.25-7.097,10.71-8.704c5.035-1.814,10.433-2.082,15.737-2.058c2.893,0.014,5.785,0.104,8.678,0.086
			c2.943-0.018,5.885-0.117,8.826-0.208c10.751-0.333,21.875-0.533,32.014,3.608c4.471,1.826,8.664,4.493,11.859,8.149
			c3.008,3.443,5.233,7.689,5.965,12.227c0.346,2.15,0.361,4.358-0.049,6.5c-0.056,0.293-0.098,0.68,0.3,0.556
			C291.097,240.661,291.423,239.937,291.485,239.614L291.485,239.614z"/>
	</g>
</g>
<g>
	<g>
		<path fill="none" stroke="#ADDAFB" stroke-width="14" stroke-miterlimit="10" d="M474.31,62.172"/>
	</g>
</g>
<g>
	<g>
		<path fill="none" stroke="#ADDAFB" stroke-width="14" stroke-miterlimit="10" d="M206.377,19"/>
	</g>
</g>
<g>
	<g>
		<path fill="none" stroke="#ADDAFB" stroke-width="3" stroke-miterlimit="10" d="M414.587,28.352"/>
	</g>
</g>
<g>
	<g>
		<path fill="#3FA9F5" d="M74.826,161.521c0.273,0,0.63-0.905,0.348-0.905C74.901,160.616,74.544,161.521,74.826,161.521
			L74.826,161.521z"/>
	</g>
</g>
<g>
	<g>
		<path fill="#FFFFFF" d="M136.851,379.68c-17.247-6.121-33.384-15.198-47.691-26.6c-14.294-11.391-26.76-25.074-36.733-40.392
			c-10.35-15.896-17.935-33.53-22.177-52.026c-4.495-19.597-5.354-39.995-2.715-59.92c2.67-20.164,8.941-39.868,18.676-57.74
			c1.231-2.26,2.52-4.487,3.859-6.685c0.217-0.356,0.151-0.989-0.206-0.403c-10.488,17.216-17.7,36.334-21.418,56.139
			c-3.747,19.96-3.972,40.597-0.505,60.614c3.293,19.013,9.994,37.332,19.731,53.99c9.303,15.914,21.249,30.271,35.133,42.392
			c13.957,12.185,29.902,22.119,47.089,29.061c2.149,0.868,4.318,1.686,6.502,2.462C136.673,380.669,137.081,379.762,136.851,379.68
			L136.851,379.68z"/>
	</g>
</g>
<g>
	<g>
		<path fill="#FFFFFF" d="M410.967,340.38c12.379-7.767,23.496-17.474,32.951-28.613c9.429-11.108,17.2-23.617,22.972-36.995
			c5.961-13.814,9.716-28.548,11.002-43.542c1.349-15.727,0.061-31.667-3.698-46.994c-3.758-15.32-9.974-30.044-18.494-43.328
			c-1.064-1.658-2.164-3.292-3.296-4.904c-0.158-0.225-0.688,0.585-0.528,0.813c8.93,12.716,15.686,26.903,20.062,41.808
			c4.39,14.953,6.389,30.632,5.817,46.208c-0.554,15.108-3.577,30.063-8.952,44.194c-5.18,13.62-12.467,26.432-21.472,37.886
			c-8.978,11.419-19.666,21.508-31.674,29.691c-1.47,1.002-2.961,1.973-4.468,2.919C410.972,339.659,410.682,340.558,410.967,340.38
			L410.967,340.38z"/>
	</g>
</g>
<g>
</g>
<g>
</g>
<g>
</g>
<g>
</g>
<g>
</g>
<g>
</g>
<g>
</g>
<g>
</g>
<g>
</g>
<g>
</g>
<g>
</g>
<g>
</g>
<g>
</g>
<g>
</g>
<g>
</g>
</svg>
